<?xml version="1.0" ?><!-- Uploaded to: SVG Repo, www.svgrepo.com, Generator: SVG Repo Mixer Tools -->
<svg fill="#000000" width="800px" height="800px" viewBox="0 0 64 64" xmlns="http://www.w3.org/2000/svg"><title/><path d="M62,28H59V25a1,1,0,0,0-1-1H54a1,1,0,0,0-1,1v3H50a1,1,0,0,0-1,1v4a1,1,0,0,0,1,1h3v3a1,1,0,0,0,1,1h4a1,1,0,0,0,1-1V34h3a1,1,0,0,0,1-1V29A1,1,0,0,0,62,28Zm-1,4H58a1,1,0,0,0-1,1v3H55V33a1,1,0,0,0-1-1H51V30h3a1,1,0,0,0,1-1V26h2v3a1,1,0,0,0,1,1h3Z"/><path d="M44.82,27H24a1,1,0,0,0-1,1v8a1,1,0,0,0,1,1H35.91a12,12,0,1,1-4.17-14.93,1,1,0,0,0,1.33-.19L38.85,15a1,1,0,0,0-.17-1.44A23,23,0,1,0,25,55a22.21,22.21,0,0,0,14.16-4.87c8.49-7,7.6-19.84,6.6-22.48A1,1,0,0,0,44.82,27ZM37.88,48.59A20.21,20.21,0,0,1,25,53,21,21,0,1,1,36.62,14.5l-4.52,5.42a14,14,0,1,0,6.23,16.38,1,1,0,0,0-1-1.31H25V29H44.06C44.75,32.21,45,42.74,37.88,48.59Z"/></svg>